<svg width="705" height="507" viewBox="0 0 705 507" fill="none" xmlns="http://www.w3.org/2000/svg">
<path d="M173.06 0L94.4405 129.287L321.699 267.071L400.319 137.784L173.06 0Z" fill="white"/>
<path d="M173.06 0L94.4405 129.287L321.699 267.071L400.319 137.784L173.06 0ZM320.223 261.043L100.478 127.814L174.536 6.02813L394.281 139.257L320.223 261.043Z" fill="#E5E5E5"/>
<path d="M149.012 43.7728L146.732 47.5235L369.608 182.65L371.889 178.899L149.012 43.7728Z" fill="#E5E5E5"/>
<path d="M117.739 95.2005L115.459 98.9512L338.334 234.078L340.615 230.327L117.739 95.2005Z" fill="#E5E5E5"/>
<path d="M235.04 37.5773L156.42 166.865L160.176 169.142L238.796 39.8547L235.04 37.5773Z" fill="#E5E5E5"/>
<path d="M360.877 113.871L282.257 243.158L278.345 241.137L357.121 111.593L360.877 113.871Z" fill="#E5E5E5"/>
<path d="M284.01 244.221L282.257 243.158L278.345 241.137L278.2 240.698L276.061 234.268L260.24 186.73L258.101 180.3L230.899 98.5518L228.76 92.1214L221.071 69.0042L219.253 63.5387L206.578 25.4544L204.438 19.024L210.248 22.5461L212.387 28.9765L222.248 58.6127L224.066 64.0782L234.57 95.6443L236.709 102.075L263.911 183.823L266.05 190.253L281.344 236.205L281.871 237.791L283.162 241.671L284.01 244.221Z" fill="#E5E5E5"/>
<path d="M275.229 201.614H273.039V141.707C273.039 137.154 272.141 132.645 270.396 128.439C268.651 124.232 266.093 120.41 262.869 117.19C259.644 113.971 255.816 111.417 251.603 109.674C247.39 107.932 242.875 107.035 238.315 107.035H111.204C106.644 107.035 102.129 107.932 97.916 109.674C93.703 111.417 89.875 113.971 86.6506 117.19C83.4261 120.41 80.8684 124.232 79.1233 128.439C77.3782 132.645 76.48 137.154 76.48 141.707V470.361C76.48 474.914 77.3782 479.423 79.1233 483.629C80.8683 487.836 83.4261 491.658 86.6505 494.878C89.875 498.098 93.7029 500.651 97.9159 502.394C102.129 504.136 106.644 505.033 111.204 505.033H238.315C247.524 505.033 256.357 501.38 262.869 494.878C269.381 488.376 273.039 479.557 273.039 470.361V244.257H275.229V201.614Z" fill="#304162"/>
<path d="M239.716 116.055H223.124C223.887 117.923 224.178 119.95 223.972 121.957C223.766 123.963 223.068 125.889 221.942 127.563C220.815 129.237 219.293 130.609 217.51 131.558C215.727 132.507 213.737 133.003 211.717 133.003H138.897C136.877 133.003 134.887 132.507 133.104 131.558C131.321 130.609 129.799 129.237 128.672 127.563C127.546 125.889 126.848 123.963 126.642 121.957C126.436 119.95 126.727 117.923 127.49 116.055H111.993C105.116 116.055 98.5198 118.783 93.6567 123.639C88.7935 128.495 86.0614 135.081 86.0614 141.948V470.12C86.0614 473.52 86.7321 476.887 88.0353 480.029C89.3385 483.17 91.2486 486.024 93.6566 488.429C96.0646 490.833 98.9233 492.74 102.069 494.042C105.216 495.343 108.588 496.013 111.993 496.013H239.716C243.121 496.013 246.493 495.343 249.64 494.042C252.786 492.74 255.644 490.833 258.052 488.429C260.46 486.024 262.371 483.17 263.674 480.029C264.977 476.887 265.648 473.52 265.648 470.12V470.12V141.948C265.648 138.548 264.977 135.181 263.674 132.039C262.371 128.898 260.46 126.044 258.052 123.639C255.644 121.235 252.786 119.328 249.64 118.026C246.493 116.725 243.121 116.055 239.716 116.055Z" fill="white"/>
<path d="M203.219 207.993H148.49V221.179H203.219V207.993Z" fill="#44EE9D"/>
<path d="M205.824 264.656H145.885V277.843H205.824V264.656Z" fill="#E5E5E5"/>
<path d="M242.745 292.983H108.965V306.169H242.745V292.983Z" fill="#E5E5E5"/>
<path d="M242.745 321.31H108.965V334.496H242.745V321.31Z" fill="#E5E5E5"/>
<path d="M203.219 384.094H148.49V404.075H203.219V384.094Z" fill="#44EE9D"/>
<path d="M296.018 108.403C299.362 108.403 302.074 105.696 302.074 102.356C302.074 99.0164 299.362 96.309 296.018 96.309C292.673 96.309 289.961 99.0164 289.961 102.356C289.961 105.696 292.673 108.403 296.018 108.403Z" fill="#44EE9D"/>
<path d="M448.007 354.491C448.959 353.995 449.791 353.296 450.443 352.444C451.096 351.592 451.553 350.607 451.784 349.559C452.014 348.512 452.011 347.426 451.776 346.38C451.54 345.333 451.078 344.351 450.422 343.502L458.763 328.95L451.143 321.732L439.652 342.447C438.297 343.643 437.429 345.294 437.211 347.086C436.994 348.879 437.442 350.689 438.472 352.174C439.502 353.659 441.041 354.715 442.798 355.142C444.556 355.569 446.409 355.337 448.007 354.491V354.491Z" fill="#FFB7B7"/>
<path d="M494.903 495.561H484.318L479.281 454.793L494.904 454.794L494.903 495.561Z" fill="#FFB7B7"/>
<path d="M497.602 505.807L463.471 505.806V505.375C463.471 501.857 464.871 498.483 467.362 495.995C469.853 493.508 473.232 492.11 476.755 492.11H476.756L497.603 492.111L497.602 505.807Z" fill="#374B74"/>
<path d="M584.291 481.974L574.956 486.958L551.263 453.378L565.041 446.022L584.291 481.974Z" fill="#FFB7B7"/>
<path d="M591.51 489.738L561.41 505.807L561.207 505.427C559.546 502.324 559.187 498.69 560.209 495.323C561.232 491.957 563.551 489.133 566.658 487.474L566.659 487.474L585.043 477.66L591.51 489.738Z" fill="#374B74"/>
<path d="M534.36 334.909L536.73 383.761C536.73 383.761 542.199 385.811 540.285 393.734C540.285 393.734 537.602 402.862 543.671 402.862C549.74 402.862 573.493 459.264 573.493 459.264L557.97 467.117L517.197 408.012L505.607 368.54L499.398 413.386L498.984 482.617L478.701 480.343L472.906 400.366L470.215 339.401L534.36 334.909Z" fill="#374B74"/>
<path d="M463.766 350.63L468.765 314.418L486.08 229.768L518.988 231.628L534.699 261.885L531.969 320.905L538.254 344.206L463.766 350.63Z" fill="#304162"/>
<path d="M476.456 299.17L456.691 336.738L453.595 344.109L444.546 333.409L456.951 289.645C456.951 289.645 468.174 235.382 486.017 229.859L490.331 230.562L476.456 299.17Z" fill="#304162"/>
<path d="M523.569 343.721C524.586 343.375 525.514 342.81 526.289 342.067C527.063 341.323 527.665 340.419 528.051 339.418C528.438 338.418 528.6 337.345 528.527 336.274C528.453 335.204 528.145 334.163 527.625 333.225L538.08 320.104L531.644 311.816L517.141 330.551C515.62 331.529 514.51 333.029 514.023 334.768C513.536 336.507 513.704 338.364 514.497 339.988C515.289 341.611 516.65 342.888 518.323 343.576C519.995 344.264 521.862 344.316 523.569 343.721V343.721Z" fill="#FFB7B7"/>
<path d="M512.853 236.992L518.688 231.404C518.688 231.404 525.541 233.951 530.475 247.097C535.409 260.244 551.466 295.841 551.466 295.841L535.75 327.703L525.153 320.688L530.868 292.631L512.853 236.992Z" fill="#304162"/>
<path d="M499.413 226.083C509.043 226.083 516.85 218.288 516.85 208.672C516.85 199.056 509.043 191.261 499.413 191.261C489.782 191.261 481.975 199.056 481.975 208.672C481.975 218.288 489.782 226.083 499.413 226.083Z" fill="#FFB7B7"/>
<path d="M515.813 194.753L516.658 193.054L512.404 190.944C512.404 190.944 507.712 183.32 499.221 185.462C490.73 187.605 486.91 188.887 486.91 188.887L482.667 191.019L484.796 193.134L480.976 194.416L483.528 195.682L480.559 197.387L482.157 206.123C482.157 206.123 484.812 199.497 489.917 202.029C495.021 204.561 504.357 200.72 504.357 200.72L512.469 216.395C512.469 216.395 514.142 210.9 517.126 212.365C517.126 212.365 524.748 200.245 515.813 194.753Z" fill="#374B74"/>
</svg>
