<svg width="305" height="351" viewBox="0 0 305 351" fill="none" xmlns="http://www.w3.org/2000/svg">
<path d="M173.277 54.0763L171.738 55.1205L143.164 12.9427C140.992 9.73706 138.211 6.99073 134.978 4.86074C131.746 2.73074 128.126 1.25876 124.325 0.528708C120.525 -0.201343 116.617 -0.175101 112.826 0.605937C109.036 1.38698 105.436 2.90748 102.232 5.0807V5.0807L12.9339 65.6603C9.7304 67.8335 6.98625 70.6168 4.85771 73.8514C2.72917 77.0859 1.2579 80.7082 0.528347 84.5117C-0.201205 88.3151 -0.174981 92.2252 0.605523 96.0185C1.38603 99.8117 2.9055 103.414 5.07723 106.62L161.837 338.01C164.009 341.216 166.79 343.962 170.022 346.092C173.255 348.222 176.874 349.694 180.675 350.424C184.476 351.154 188.383 351.128 192.174 350.347C195.965 349.566 199.565 348.045 202.768 345.872V345.872L292.066 285.293C295.27 283.12 298.014 280.337 300.143 277.102C302.271 273.868 303.742 270.245 304.472 266.442C305.201 262.638 305.175 258.728 304.394 254.935C303.614 251.142 302.095 247.539 299.923 244.334V244.334L192.077 85.1436L193.616 84.0994L173.277 54.0763Z" fill="#3F3D56"/>
<path d="M108.99 16.0326L97.7074 23.6864C99.0889 24.6073 100.223 25.854 101.009 27.3168C101.796 28.7795 102.211 30.4136 102.218 32.0746C102.225 33.7357 101.823 35.3726 101.048 36.8418C100.274 38.3109 99.1498 39.5668 97.7758 40.4989L48.2605 74.0901C46.8866 75.022 45.3046 75.6014 43.6542 75.7774C42.0039 75.9534 40.3356 75.7207 38.7964 75.0995C37.2571 74.4783 35.894 73.4877 34.8274 72.2153C33.7607 70.9428 33.0231 69.4273 32.6797 67.8024L22.1405 74.9522C19.8249 76.5231 17.8414 78.5353 16.3028 80.8733C14.7642 83.2114 13.7007 85.8298 13.1734 88.5791C12.646 91.3284 12.6651 94.1547 13.2292 96.8967C13.7934 99.6386 14.8915 102.243 16.4613 104.56V104.56L167.966 328.194C169.535 330.511 171.546 332.496 173.882 334.036C176.219 335.575 178.835 336.639 181.583 337.167C184.33 337.695 187.155 337.676 189.895 337.111C192.635 336.547 195.237 335.448 197.552 333.877L284.399 274.96C289.076 271.788 292.301 266.886 293.366 261.334C294.431 255.781 293.249 250.033 290.078 245.353V245.353L138.573 21.7178C137.004 19.4006 134.993 17.4157 132.657 15.8761C130.32 14.3364 127.703 13.2723 124.956 12.7446C122.208 12.2169 119.384 12.2359 116.644 12.8005C113.904 13.365 111.302 14.4642 108.986 16.0351V16.0351L108.99 16.0326Z" fill="white"/>
<path d="M106.393 171.673C105.783 171.864 105.133 171.891 104.509 171.751C103.885 171.611 103.309 171.308 102.839 170.875C102.369 170.441 102.021 169.891 101.831 169.28C101.641 168.669 101.615 168.018 101.756 167.394C103.873 158.581 111.924 137.027 141.25 127.962C153.953 124.035 166.136 123.968 177.445 127.761C186.748 130.868 192.924 135.731 195.878 138.082C196.628 138.676 197.112 139.544 197.223 140.496C197.334 141.447 197.063 142.403 196.469 143.154C196.462 143.164 196.454 143.173 196.447 143.182C195.837 143.936 194.956 144.419 193.993 144.529C193.03 144.638 192.063 144.364 191.3 143.767C185.948 139.547 169.705 126.726 143.381 134.864C117.677 142.809 110.694 161.395 108.883 168.999C108.746 169.627 108.442 170.207 108.004 170.677C107.566 171.147 107.009 171.491 106.393 171.673L106.393 171.673Z" fill="#44EE9D"/>
<path d="M186.325 221.593C186.034 221.687 185.732 221.744 185.426 221.762C162.515 222.997 147.938 203.95 147.34 203.156L147.229 202.973C146.864 202.406 138.044 188.977 141.926 178.312C143.71 173.436 147.654 170.014 153.683 168.15C159.291 166.417 163.879 166.93 167.785 169.721C170.987 171.994 173.039 175.385 175.029 178.659C179.166 185.458 181.701 188.917 189.565 186.921C193.018 186.045 194.63 183.343 195.366 181.239C197.349 175.513 195.592 167.707 190.942 161.801C184.935 154.138 168.124 141.412 147.382 147.824C138.524 150.562 131.275 155.958 126.421 163.387C122.399 169.553 120.061 177.211 120.01 184.353C119.929 197.65 130.82 215.144 130.923 215.302C131.174 215.704 131.343 216.15 131.421 216.617C131.499 217.084 131.485 217.562 131.378 218.023C131.272 218.484 131.076 218.92 130.802 219.305C130.527 219.691 130.179 220.018 129.778 220.269C129.767 220.276 129.756 220.283 129.745 220.29C128.923 220.803 127.933 220.972 126.988 220.76C126.042 220.548 125.218 219.973 124.694 219.159C124.202 218.359 112.573 199.706 112.667 184.338C112.797 167.68 122.913 147.8 145.243 140.897C155.565 137.706 166.411 138.243 176.619 142.431C184.53 145.696 191.852 151.103 196.693 157.276C202.876 165.155 205.055 175.47 202.24 183.52C200.363 188.887 196.479 192.59 191.316 193.914C177.86 197.339 172.588 188.715 168.744 182.424C164.796 175.975 162.612 172.951 155.789 175.06C152.043 176.218 149.735 178.074 148.764 180.74C147.443 184.385 148.695 189.057 149.978 192.332C149.991 192.366 150.004 192.4 150.018 192.435C151.662 196.597 154.229 200.333 157.524 203.36C162.803 208.238 172.603 215.192 185.094 214.522C186.048 214.462 186.988 214.785 187.705 215.419C188.422 216.052 188.858 216.945 188.918 217.901C188.918 217.912 188.919 217.924 188.92 217.935C188.949 218.746 188.711 219.543 188.242 220.204C187.773 220.865 187.099 221.353 186.325 221.593L186.325 221.593Z" fill="#44EE9D"/>
<path d="M158.542 228.441C158.065 228.589 157.562 228.638 157.065 228.586C156.568 228.534 156.086 228.382 155.649 228.138C144.349 221.731 136.417 213.114 130.704 201.037L130.681 200.962C127.081 192.91 124.914 180.606 129.694 170.208C133.224 162.535 139.848 157.142 149.351 154.205C160.59 150.73 171.056 153.288 179.645 161.567C183.551 165.387 186.727 169.889 189.018 174.851C189.383 175.744 189.383 176.745 189.016 177.637C188.65 178.53 187.947 179.242 187.06 179.619C186.173 179.997 185.173 180.011 184.277 179.656C183.38 179.302 182.659 178.609 182.269 177.727C180.329 173.585 177.651 169.832 174.366 166.653C167.745 160.35 160.049 158.486 151.464 161.139C144.046 163.433 138.938 167.487 136.323 173.191C132.552 181.4 134.493 191.652 137.31 197.961C142.347 208.643 149.334 216.22 159.279 221.849C159.69 222.08 160.051 222.391 160.342 222.763C160.633 223.134 160.848 223.559 160.975 224.014C161.101 224.469 161.137 224.944 161.081 225.412C161.024 225.881 160.875 226.334 160.643 226.745C160.634 226.761 160.625 226.777 160.616 226.793C160.152 227.581 159.413 228.168 158.542 228.441V228.441Z" fill="#44EE9D"/>
<path d="M159.733 192.335C162.314 192.335 164.407 190.241 164.407 187.658C164.407 185.074 162.314 182.98 159.733 182.98C157.151 182.98 155.059 185.074 155.059 187.658C155.059 190.241 157.151 192.335 159.733 192.335Z" fill="#E6E6E6"/>
</svg>
