<svg width="703" height="505" viewBox="0 0 703 505" fill="none" xmlns="http://www.w3.org/2000/svg">
<g clip-path="url(#clip0)">
<path opacity="0.1" d="M691.868 339.508C675.563 373.267 642.456 395.84 608.145 410.727C561.955 430.775 511.088 438.727 460.92 435.364C452.128 434.777 443.363 433.838 434.625 432.549C404.275 428.105 374.686 419.457 346.704 406.853C338.628 403.202 330.716 399.218 322.968 394.898C310.025 387.698 297.625 379.559 285.865 370.544C282.907 368.278 279.99 365.954 277.114 363.572C275.12 361.921 273.144 360.234 271.137 358.595C266.903 355.14 262.546 351.857 257.685 349.4C256.219 348.658 254.716 347.992 253.181 347.404C237.79 341.528 220.043 343.746 204.02 348.328C191.833 351.814 179.952 356.588 167.777 359.994C162.361 361.555 156.843 362.732 151.263 363.517C138.805 365.1 126.153 363.984 114.161 360.246L113.136 359.926C111.418 359.384 109.714 358.791 108.024 358.146L106.999 357.752C105.363 357.119 103.761 356.44 102.194 355.713L101.169 355.245C99.5329 354.481 97.9312 353.674 96.3643 352.824C95.7998 352.529 95.2413 352.208 94.689 351.907C85.7741 346.909 77.6705 340.577 70.6578 333.127C70.4553 332.924 70.265 332.714 70.0441 332.511C69.0684 331.452 68.1111 330.374 67.1844 329.271C66.8408 328.865 66.4971 328.458 66.1596 328.04C65.0591 326.693 63.9974 325.315 62.9746 323.907C62.8212 323.704 62.674 323.494 62.5267 323.291C58.3363 317.472 54.8622 311.167 52.1802 304.511C52.0943 304.308 52.0145 304.099 51.9409 303.895C51.1227 301.781 50.376 299.631 49.701 297.447C49.4249 296.535 49.161 295.599 48.9278 294.687C48.848 294.416 48.7744 294.139 48.7069 293.868C45.3194 280.484 44.9328 266.571 44.9328 252.737C44.9328 251.123 44.9328 249.512 44.9328 247.902C45.031 225.526 45.3746 202.767 48.6639 180.699C48.6639 180.545 48.7069 180.391 48.7314 180.243C49.8323 172.814 51.3298 165.449 53.2173 158.181C55.1928 150.554 57.7176 143.082 60.7716 135.823C68.3381 117.961 79.3412 101.707 91.5593 86.6416C122.335 48.7316 162.696 16.907 209.936 4.99508C260.84 -7.83456 317.414 4.45923 358.474 37.2693C370.993 47.2719 382.242 59.1161 396.301 66.7843C408.574 73.4609 422.94 76.2264 436.085 70.9726C446.947 66.6303 454.016 64.4746 466.216 65.1336C491.472 66.5677 516.371 71.8019 540.077 80.661C541.035 81.0121 541.992 81.3755 542.943 81.7389C604.746 105.47 657.871 152.619 685.486 213.207C686.218 214.809 686.928 216.422 687.615 218.048C704.08 256.648 710.033 301.888 691.868 339.508Z" fill="#44EE9D"/>
<path opacity="0.1" d="M73.8242 457.623C103.744 457.623 127.999 453.713 127.999 448.89C127.999 444.066 103.744 440.156 73.8242 440.156C43.9044 440.156 19.6496 444.066 19.6496 448.89C19.6496 453.713 43.9044 457.623 73.8242 457.623Z" fill="#44EE9D"/>
<path opacity="0.1" d="M559.825 505C612.876 505 655.883 500.809 655.883 495.638C655.883 490.468 612.876 486.276 559.825 486.276C506.774 486.276 463.768 490.468 463.768 495.638C463.768 500.809 506.774 505 559.825 505Z" fill="#44EE9D"/>
<path d="M646.794 66.3655H78.9361C74.703 66.3655 71.2714 69.8097 71.2714 74.0584V390.242C71.2714 394.49 74.703 397.934 78.9361 397.934H646.794C651.027 397.934 654.459 394.49 654.459 390.242V74.0584C654.459 69.8097 651.027 66.3655 646.794 66.3655Z" fill="url(#paint0_linear)"/>
<path d="M645.935 71.028H79.8628C75.6297 71.028 72.1981 74.4722 72.1981 78.7209V389.139C72.1981 393.388 75.6297 396.832 79.8628 396.832H645.935C650.168 396.832 653.6 393.388 653.6 389.139V78.7209C653.6 74.4722 650.168 71.028 645.935 71.028Z" fill="white"/>
<path d="M645.935 71.028H79.8628C75.6297 71.028 72.1981 74.4722 72.1981 78.7209V389.139C72.1981 393.388 75.6297 396.832 79.8628 396.832H645.935C650.168 396.832 653.6 393.388 653.6 389.139V78.7209C653.6 74.4722 650.168 71.028 645.935 71.028Z" fill="white"/>
<path opacity="0.04" d="M645.935 71.028H79.8628C75.6297 71.028 72.1981 74.4722 72.1981 78.7209V389.139C72.1981 393.388 75.6297 396.832 79.8628 396.832H645.935C650.168 396.832 653.6 393.388 653.6 389.139V78.7209C653.6 74.4722 650.168 71.028 645.935 71.028Z" fill="white"/>
<path d="M650.648 67.2894H75.1498C74.367 67.2894 73.6162 67.6016 73.0626 68.1572C72.5091 68.7127 72.1981 69.4663 72.1981 70.252V82.7737H653.575V70.252C653.575 69.4705 653.268 68.7207 652.719 68.1658C652.171 67.6109 651.426 67.2959 650.648 67.2894Z" fill="#5A5773"/>
<path d="M83.8087 79.035C86.0116 79.035 87.7975 77.2426 87.7975 75.0315C87.7975 72.8204 86.0116 71.028 83.8087 71.028C81.6057 71.028 79.8198 72.8204 79.8198 75.0315C79.8198 77.2426 81.6057 79.035 83.8087 79.035Z" fill="white"/>
<path d="M94.5479 79.035C96.7509 79.035 98.5367 77.2426 98.5367 75.0315C98.5367 72.8204 96.7509 71.028 94.5479 71.028C92.3449 71.028 90.559 72.8204 90.559 75.0315C90.559 77.2426 92.3449 79.035 94.5479 79.035Z" fill="white"/>
<path d="M105.287 79.035C107.49 79.035 109.276 77.2426 109.276 75.0315C109.276 72.8204 107.49 71.028 105.287 71.028C103.084 71.028 101.298 72.8204 101.298 75.0315C101.298 77.2426 103.084 79.035 105.287 79.035Z" fill="white"/>
<path opacity="0.2" d="M276.108 111.894H120.083V125.186H276.108V111.894Z" fill="#44EE9D"/>
<path opacity="0.1" d="M605.715 165.19H120.083V369.651H605.715V165.19Z" fill="#5A5773"/>
<path opacity="0.1" d="M404.426 178.525H396.111V162.314C396.111 144.021 381.579 128.814 363.353 128.537C358.958 128.49 354.598 129.317 350.523 130.97C346.448 132.623 342.739 135.069 339.61 138.167C336.481 141.265 333.994 144.954 332.292 149.021C330.59 153.088 329.707 157.453 329.693 161.864V178.525H321.397C317.73 178.536 314.217 180.003 311.624 182.605C309.031 185.208 307.57 188.734 307.558 192.414V259.069C307.57 262.749 309.031 266.275 311.624 268.877C314.217 271.479 317.73 272.946 321.397 272.958H404.426C408.092 272.946 411.605 271.479 414.196 268.877C416.788 266.274 418.248 262.748 418.258 259.069V192.414C418.248 188.734 416.788 185.208 414.196 182.606C411.605 180.003 408.092 178.536 404.426 178.525ZM367.759 221.855V245.728C367.767 246.992 367.296 248.212 366.442 249.141C365.587 250.069 364.413 250.637 363.157 250.729C362.501 250.76 361.846 250.657 361.231 250.426C360.616 250.196 360.054 249.842 359.579 249.388C359.104 248.933 358.726 248.386 358.467 247.78C358.209 247.174 358.076 246.522 358.075 245.863V221.843C355.83 220.744 354.023 218.914 352.947 216.651C351.872 214.388 351.593 211.827 352.154 209.384C352.716 206.941 354.086 204.762 356.041 203.201C357.996 201.641 360.42 200.791 362.917 200.791C365.415 200.791 367.839 201.641 369.794 203.201C371.748 204.762 373.118 206.941 373.68 209.384C374.242 211.827 373.963 214.388 372.887 216.651C371.812 218.914 370.004 220.744 367.759 221.843V221.855ZM386.439 178.525H339.377V161.864C339.377 155.603 341.855 149.598 346.266 145.171C350.678 140.743 356.661 138.256 362.899 138.256C369.137 138.256 375.12 140.743 379.531 145.171C383.943 149.598 386.421 155.603 386.421 161.864L386.439 178.525Z" fill="black"/>
<path d="M404.426 177.293H396.111V161.082C396.111 142.789 381.579 127.582 363.353 127.305C358.958 127.258 354.598 128.085 350.523 129.738C346.448 131.391 342.739 133.837 339.61 136.935C336.481 140.033 333.994 143.722 332.292 147.789C330.59 151.856 329.707 156.221 329.693 160.632V177.293H321.397C317.73 177.304 314.217 178.771 311.624 181.373C309.031 183.976 307.57 187.502 307.558 191.182V257.837C307.57 261.517 309.031 265.043 311.624 267.645C314.217 270.248 317.73 271.715 321.397 271.726H404.426C408.092 271.715 411.605 270.247 414.196 267.645C416.788 265.043 418.248 261.516 418.258 257.837V191.182C418.248 187.502 416.788 183.976 414.196 181.374C411.605 178.771 408.092 177.304 404.426 177.293V177.293ZM367.759 220.623V244.496C367.767 245.76 367.296 246.98 366.442 247.909C365.587 248.837 364.413 249.405 363.157 249.497C362.501 249.528 361.846 249.425 361.231 249.195C360.616 248.964 360.054 248.611 359.579 248.156C359.104 247.701 358.726 247.154 358.467 246.548C358.209 245.943 358.076 245.29 358.075 244.632V220.611C355.83 219.512 354.023 217.682 352.947 215.419C351.872 213.156 351.593 210.595 352.154 208.152C352.716 205.71 354.086 203.53 356.041 201.97C357.996 200.409 360.42 199.559 362.917 199.559C365.415 199.559 367.839 200.409 369.794 201.97C371.748 203.53 373.118 205.71 373.68 208.152C374.242 210.595 373.963 213.156 372.887 215.419C371.812 217.682 370.004 219.512 367.759 220.611V220.623ZM386.439 177.293H339.377V160.632C339.377 154.371 341.855 148.366 346.266 143.939C350.678 139.511 356.661 137.024 362.899 137.024C369.137 137.024 375.12 139.511 379.531 143.939C383.943 148.366 386.421 154.371 386.421 160.632L386.439 177.293Z" fill="#44EE9D"/>
<path opacity="0.1" d="M605.715 145.511H556.56V157.159H605.715V145.511Z" fill="#5A5773"/>
<path d="M622.444 498.459C622.12 496.826 621.566 495.248 620.799 493.772L613.435 482.735H613.478C613.478 482.735 612.318 477.191 613.478 474.469C614.638 471.746 609.342 465.051 609.342 465.051C609.342 465.051 608.698 463.37 610.379 461.3C612.061 459.231 609.342 453.17 609.342 453.17C609.342 453.17 608.053 440.513 607.924 438.579C607.796 436.645 606.758 425.928 606.758 425.928L604.304 403.207L599.934 342.988L599.855 341.861C600.395 341.596 600.683 341.43 600.683 341.43L599.812 308.133L600.567 307.449C607.157 301.463 622.358 287.604 622.204 287.303C622.051 287.001 620.364 264.162 620.167 258.447C619.998 254.385 619.113 250.385 617.553 246.633C617.172 245.876 616.074 240.881 615.62 238.768C615.497 238.189 615.417 237.826 615.417 237.826C615.417 237.826 610.962 229.301 611.349 225.427C611.735 221.553 612.509 218.652 603.009 217.297C603.009 217.297 595.031 216.102 590.281 212.844C587.472 210.892 584.402 209.349 581.162 208.261C581.162 208.261 578.499 203.334 576.646 205.003C575.861 203.245 575.274 201.404 574.897 199.515L574.842 199.17C578.36 196.708 580.891 193.072 581.985 188.909C582.046 188.675 582.095 188.435 582.15 188.201C582.335 188.264 582.527 188.299 582.721 188.306C584.335 188.306 585.329 186.501 586.839 185.928C587.452 185.688 588.207 185.651 588.68 185.164C588.836 184.977 588.952 184.759 589.021 184.525C589.091 184.292 589.113 184.046 589.085 183.803C589.1 183.635 589.1 183.466 589.085 183.298C589.088 183.239 589.088 183.179 589.085 183.12V183.181C588.674 180.939 586.943 178.95 587.133 176.671C587.317 174.527 589.195 172.643 589.042 170.555C589.04 170.39 589.025 170.225 588.999 170.062V170.136C588.77 169.321 588.349 168.573 587.772 167.956C587.111 167.052 586.244 166.321 585.243 165.824C584.39 165.449 583.402 165.363 582.604 164.913C580.26 163.632 580.266 160.293 578.873 158.015C578.277 157.063 577.429 156.296 576.426 155.797C575.422 155.298 574.3 155.087 573.185 155.188C571.442 155.36 569.865 156.29 568.14 156.592C565.784 157.011 563.384 156.241 561.151 155.36C558.917 154.479 556.652 153.512 554.253 153.512C551.854 153.512 549.258 154.744 548.534 157.017C548.147 158.249 548.337 159.573 548.043 160.823C547.515 163.028 545.588 164.605 543.594 165.701C542.366 166.385 540.906 167.167 540.525 168.461C540.525 168.424 540.525 168.393 540.525 168.362C540.498 168.465 540.477 168.57 540.464 168.676C540.452 168.813 540.452 168.952 540.464 169.089C540.464 169.976 540.93 170.82 541.243 171.663C541.826 173.269 541.813 175.031 541.206 176.628C540.752 177.798 539.979 178.827 539.537 179.991C539.329 180.533 539.193 181.1 539.132 181.678V181.58C539.117 181.842 539.117 182.106 539.132 182.368C539.125 183.268 539.335 184.155 539.746 184.955C540.027 185.507 540.416 185.997 540.89 186.396C541.363 186.795 541.911 187.094 542.501 187.277C543.729 187.56 544.496 186.353 545.791 186.661C546.022 186.717 546.25 186.789 546.472 186.877C546.515 187.154 546.558 187.431 546.607 187.702C547.39 191.847 549.591 195.588 552.829 198.277C552.829 198.425 552.878 198.573 552.897 198.727C553.289 201.183 553.459 203.669 553.406 206.155C553.406 206.155 551.473 203.316 548.822 208.797C548.822 208.797 541.906 212.801 539.519 213.257C537.132 213.712 528.657 216.675 528.657 216.675C527.379 217.603 525.841 218.101 524.263 218.098C521.618 218.098 519.421 223.906 519.74 227.066C520.059 230.225 519.55 232.553 517.089 232.683C514.628 232.812 515.972 237.82 515.991 237.906L515.764 238.984C515.285 241.189 514.242 245.919 513.874 246.658C512.313 250.41 511.426 254.409 511.253 258.471C511.063 264.187 509.412 286.939 509.222 287.327C509.093 287.58 519.507 297.133 526.828 303.809L527.89 304.77L524.521 336.355C524.619 337.572 524.979 338.753 525.577 339.816C526.175 340.879 526.995 341.8 527.982 342.514C527.982 342.883 527.982 343.259 527.945 343.647C527.798 347.343 527.503 351.814 526.914 352.985C525.883 355.054 526.141 366.153 526.141 366.153C526.141 366.153 525.104 388.745 523.815 391.202C522.526 393.66 522.263 398.815 522.649 399.825C523.036 400.835 521.354 427.967 521.354 427.967L520.066 440.107C520.066 440.107 520.452 451.723 519.286 451.982C518.12 452.24 517.476 460.247 517.476 460.247C517.476 460.247 513.346 465.926 515.15 467.989C516.954 470.053 514.886 470.964 514.696 471.475C514.506 471.987 510.756 473.939 513.469 481.158C513.494 481.229 513.522 481.299 513.555 481.367C511.014 484.909 502.963 496.334 503.454 498.071C503.816 499.176 504.584 500.101 505.601 500.658C507.498 501.797 510.75 502.327 515.923 500.658C524.515 497.88 523.901 495.878 523.901 495.878C523.945 494.942 524.345 494.059 525.019 493.411C525.692 492.762 526.588 492.397 527.522 492.392C531.075 492.133 533.726 488.844 533.726 488.844L533.309 487.286L532.738 485.13C532.805 484.515 533.241 483.437 535.193 482.839C538.169 481.934 537.389 476.255 537.389 476.255C537.389 476.255 537.132 470.318 538.42 469.541C539.709 468.765 539.2 458.954 539.2 458.954C539.2 458.954 540.623 451.852 542.685 447.073C544.747 442.293 547.214 413.899 547.214 413.899C547.214 413.899 548.89 399.955 550.442 395.951C551.995 391.948 553.418 380.719 553.418 380.719C553.418 380.719 562.986 362.125 563.108 357.992C563.108 357.992 564.336 354.118 565.563 358.38C566.79 362.642 570.239 372.842 570.239 372.842L573.596 385.364L577.603 404.081L580.193 419.837C580.193 419.837 579.8 425.774 580.806 427.844C581.813 429.913 583.261 434.68 582.488 435.586C581.715 436.491 584.034 440.753 584.685 441.653C585.335 442.552 584.685 461.664 584.685 461.664C584.685 461.664 587.655 477.93 591.92 480.757C592.217 480.954 592.534 481.119 592.865 481.25C592.804 483.012 592.742 485.371 592.822 486.603C592.813 486.878 592.859 487.152 592.957 487.409C593.344 487.927 597.738 491.413 598.646 491.413C599.554 491.413 602.776 493.673 602.911 494.77C603.046 495.866 612.355 500.51 613.674 500.645C614.994 500.781 621.388 501.933 622.266 500.128C622.483 499.6 622.545 499.021 622.444 498.459ZM599.572 265.813L600.235 266.386C600.235 266.386 600.916 271.714 601.401 273.309C601.886 274.904 601.303 278.008 601.303 278.008C601.348 279.167 601.578 280.311 601.984 281.396C602.561 282.56 600.818 285.091 600.818 285.091H599.266L598.781 265.148L599.572 265.813ZM553.406 206.266V206.149C553.394 206.186 553.388 206.229 553.388 206.266H553.406ZM529.565 283.04C529.326 282.525 529.291 281.937 529.467 281.396C529.605 281.104 529.714 280.798 529.792 280.484C529.983 279.675 530.102 278.851 530.148 278.021C530.149 278.01 530.149 278 530.148 277.99C530.093 277.694 529.596 274.836 530.056 273.321C530.516 271.806 531.216 266.398 531.216 266.398L531.658 266.023L532.683 265.129C532.683 265.129 532.683 264.797 532.756 264.249C532.971 268.93 533.143 274.103 532.867 274.362C532.351 274.873 530.473 279.905 530.928 280.103C531.075 280.17 530.872 282.184 530.529 284.894C530.143 284.313 529.82 283.691 529.565 283.04V283.04Z" fill="url(#paint1_linear)"/>
<path d="M579.027 211.187V218.849L563.366 226.751C563.366 226.751 547.816 217.309 551.651 213.552C554.106 211.175 553.633 204.646 552.97 200.156C552.584 197.544 552.136 195.629 552.136 195.629C552.136 195.629 580.07 187.622 575.848 193.701C574.436 195.734 574.326 198.364 574.799 200.969C575.756 206.137 579.027 211.187 579.027 211.187Z" fill="#C37098"/>
<path d="M536.125 286.114L534.106 311.071C534.106 311.071 531.081 308.318 527.166 304.733C519.906 298.087 509.596 288.584 509.719 288.331C509.909 287.943 511.56 265.302 511.738 259.611C511.906 255.571 512.783 251.593 514.328 247.859C514.696 247.12 515.733 242.414 516.169 240.215C516.316 239.532 516.408 239.088 516.408 239.088L519.796 237.721C519.796 237.721 533.91 253.526 533.91 253.815C533.91 254.105 532.946 266.244 532.946 266.244L531.946 267.119L531.511 267.495C531.511 267.495 530.835 272.798 530.357 274.387C529.878 275.976 530.394 278.735 530.449 279.031C530.404 279.861 530.287 280.685 530.099 281.495C530.019 281.806 529.91 282.109 529.774 282.4C529.601 282.939 529.636 283.524 529.872 284.038C530.145 284.752 530.499 285.432 530.928 286.065L536.125 286.114Z" fill="#3F3D56"/>
<path d="M621.664 288.331C621.812 288.633 606.758 302.423 600.235 308.379L597.277 311.071L595.277 286.114H600.462C600.462 286.114 602.193 283.607 601.616 282.449C601.214 281.37 600.988 280.232 600.947 279.08C600.947 279.08 601.518 276 601.039 274.405C600.56 272.81 599.885 267.513 599.885 267.513L599.229 266.946L598.449 266.263C598.449 266.263 597.486 254.123 597.486 253.833C597.486 253.544 611.6 237.739 611.6 237.739L614.963 239.088C614.963 239.088 615.037 239.452 615.159 240.031C615.614 242.131 616.7 247.101 617.074 247.859C618.619 251.593 619.496 255.571 619.664 259.611C619.823 265.302 621.468 287.943 621.664 288.331Z" fill="#3F3D56"/>
<path d="M621.726 500.171C620.824 501.97 614.491 500.787 613.183 500.689C611.876 500.59 602.647 495.928 602.518 494.837C602.389 493.747 599.192 491.499 598.296 491.499C597.4 491.499 593.049 488.025 592.662 487.514C592.565 487.259 592.521 486.986 592.534 486.713C592.399 484.601 592.662 479.162 592.662 479.162L611.226 480.191L620.247 493.809C621.007 495.278 621.557 496.848 621.879 498.471C621.989 499.041 621.935 499.63 621.726 500.171V500.171Z" fill="#3F3D56"/>
<path opacity="0.1" d="M621.726 500.171C620.824 501.97 614.491 500.787 613.183 500.689C611.876 500.59 602.647 495.928 602.518 494.837C602.389 493.747 599.192 491.499 598.296 491.499C597.4 491.499 593.049 488.025 592.662 487.514C592.565 487.259 592.521 486.986 592.534 486.713C592.399 484.601 592.662 479.162 592.662 479.162L611.226 480.191L620.247 493.809C621.007 495.278 621.557 496.848 621.879 498.471C621.989 499.041 621.935 499.63 621.726 500.171V500.171Z" fill="black"/>
<path opacity="0.1" d="M621.726 500.171C620.824 501.97 614.491 500.787 613.184 500.689C611.876 500.59 602.647 495.928 602.518 494.837C602.389 493.747 599.192 491.499 598.296 491.499C597.4 491.499 593.049 488.025 592.663 487.514C592.565 487.259 592.521 486.986 592.534 486.713L598.548 490.532C598.548 490.532 602.389 492.996 603.414 494.455C604.439 495.915 612.515 498.952 613.184 499.013C613.681 499.063 618.983 498.04 621.879 498.471C621.989 499.041 621.935 499.63 621.726 500.171V500.171Z" fill="black"/>
<path d="M533.971 488.931C533.971 488.931 531.345 492.207 527.835 492.46C526.908 492.467 526.02 492.83 525.353 493.476C524.686 494.121 524.292 494.999 524.251 495.927C524.251 495.927 524.864 497.923 516.377 500.689C511.253 502.345 508.031 501.822 506.154 500.689C505.146 500.13 504.385 499.211 504.024 498.114C503.447 496.063 514.776 480.449 514.776 480.449L525.085 479.833L532.449 483.172L533.578 487.403L533.971 488.931Z" fill="#3F3D56"/>
<path opacity="0.1" d="M533.971 488.931C533.971 488.931 531.345 492.207 527.835 492.46C526.908 492.467 526.02 492.83 525.353 493.476C524.686 494.121 524.292 494.999 524.251 495.927C524.251 495.927 524.864 497.923 516.377 500.689C511.253 502.345 508.031 501.822 506.154 500.689C505.146 500.13 504.385 499.211 504.024 498.114C503.447 496.063 514.776 480.449 514.776 480.449L525.085 479.833L532.449 483.172L533.578 487.403L533.971 488.931Z" fill="black"/>
<path opacity="0.1" d="M533.971 488.931C533.971 488.931 531.345 492.207 527.835 492.46C526.908 492.467 526.02 492.831 525.353 493.476C524.686 494.121 524.292 494.999 524.251 495.927C524.251 495.927 524.864 497.923 516.377 500.689C511.253 502.345 508.032 501.822 506.154 500.689C510.983 500.184 521.655 497.122 522.723 496.063C524.005 494.776 525.607 491.24 526.693 491.179C527.448 491.129 531.283 488.814 533.585 487.379L533.971 488.931Z" fill="black"/>
<path d="M613.018 474.604C611.864 477.302 613.018 482.827 613.018 482.827C613.018 482.827 595.835 483.726 591.638 480.899C587.44 478.072 584.47 461.879 584.47 461.879C584.47 461.879 585.084 442.866 584.47 441.967C583.856 441.067 581.524 436.83 582.292 435.931C583.059 435.031 581.678 430.276 580.628 428.219C579.579 426.162 580.015 420.255 580.015 420.255L577.45 404.574L573.485 385.949L570.116 373.482C570.116 373.482 566.661 363.332 565.489 359.094C564.317 354.857 563.078 358.706 563.078 358.706C562.955 362.821 553.48 381.323 553.48 381.323C553.48 381.323 552.068 392.502 550.534 396.481C549 400.46 547.331 414.343 547.331 414.343C547.331 414.343 544.876 442.607 542.851 447.362C540.826 452.117 539.433 459.182 539.433 459.182C539.433 459.182 539.948 468.95 538.666 469.72C537.383 470.49 537.592 476.403 537.592 476.403C537.592 476.403 538.359 482.051 535.413 482.956C532.468 483.862 532.959 485.783 532.959 485.783C532.959 485.783 516.574 488.481 513.886 481.281C511.198 474.081 514.911 472.165 515.113 471.648C515.316 471.13 517.359 470.237 515.567 468.174C513.775 466.111 517.869 460.469 517.869 460.469C517.869 460.469 518.513 452.505 519.661 452.246C520.808 451.988 520.434 440.427 520.434 440.427L521.71 428.349C521.71 428.349 523.379 401.365 522.993 400.336C522.606 399.308 522.864 394.177 524.146 391.714C525.429 389.25 526.448 366.781 526.448 366.781C526.448 366.781 526.19 355.738 527.215 353.68C527.828 352.516 528.086 348.039 528.233 344.386C528.344 341.596 528.368 339.286 528.368 339.286L542.704 333.891L561.114 327.984L576.603 335.437L599.266 339.804L599.548 343.727L603.874 403.662L606.329 426.273C606.329 426.273 607.354 436.935 607.483 438.862C607.612 440.79 608.888 453.386 608.888 453.386C608.888 453.386 611.576 459.422 609.913 461.479C608.25 463.536 608.888 465.175 608.888 465.175C608.888 465.175 614.172 471.907 613.018 474.604Z" fill="#3F3D56"/>
<path opacity="0.1" d="M575.86 193.701C574.449 195.734 574.338 198.364 574.811 200.969C571.586 203.252 567.703 204.409 563.759 204.261C559.815 204.113 556.029 202.669 552.983 200.15V200.15C552.596 197.538 552.148 195.623 552.148 195.623C552.148 195.623 580.082 187.628 575.86 193.701Z" fill="black"/>
<path d="M582.39 185.842C582.39 189.411 581.335 192.9 579.36 195.868C577.384 198.836 574.576 201.149 571.29 202.515C568.005 203.881 564.389 204.238 560.901 203.542C557.414 202.845 554.21 201.127 551.695 198.603C549.181 196.079 547.468 192.863 546.774 189.363C546.081 185.862 546.437 182.233 547.798 178.936C549.158 175.638 551.463 172.82 554.42 170.837C557.377 168.854 560.853 167.795 564.409 167.795C566.774 167.784 569.117 168.243 571.304 169.146C573.49 170.049 575.477 171.378 577.149 173.056C578.821 174.734 580.145 176.728 581.044 178.922C581.944 181.117 582.401 183.469 582.39 185.842Z" fill="#C37098"/>
<path opacity="0.1" d="M586.133 215.831L580.242 321.123L548.239 314.379L541.9 272.169L548.178 215.505L552.903 216.114L561.237 217.18L569.49 217.691L578.438 216.693L586.133 215.831Z" fill="black"/>
<path d="M586.133 216.601L580.242 321.893L548.239 315.148L541.9 272.939L548.178 216.281L552.903 216.884L561.237 217.95L569.49 218.461L578.438 217.463L586.133 216.601Z" fill="#44EE9D"/>
<path d="M559.825 219.428L571.35 219.816L568.11 224.368C568.11 224.368 568.337 233.564 569.877 236.2C571.417 238.836 570.963 279.561 570.963 279.561L567.895 285.406L562.648 278.852L562.715 225.082L559.825 219.428Z" fill="#3F3D56"/>
<path opacity="0.1" d="M559.825 219.428L571.35 219.816L568.11 224.368C568.11 224.368 568.337 233.564 569.877 236.2C571.417 238.836 570.963 279.561 570.963 279.561L567.895 285.406L562.648 278.852L562.715 225.082L559.825 219.428Z" fill="black"/>
<path opacity="0.1" d="M577.873 207.479L567.122 219.428L573.264 225.852L583.445 215.893L577.873 207.479Z" fill="black"/>
<path d="M577.873 206.709L567.122 218.658L573.264 225.082L583.445 215.123L577.873 206.709Z" fill="#44EE9D"/>
<path opacity="0.1" d="M562.58 218.849L551.694 207.929L550.669 213.645L555.664 226.172L562.58 218.849Z" fill="black"/>
<path d="M562.961 218.079L552.081 207.159L551.056 212.875L556.051 225.403L562.961 218.079Z" fill="#44EE9D"/>
<path opacity="0.1" d="M599.603 343.746C594.378 346.244 588.781 347.869 583.034 348.556C572.473 349.905 565.563 336.416 565.563 336.416L561.531 341.682C560.249 347.275 540.728 348.685 532.793 346.567C531.147 346.158 529.598 345.423 528.24 344.405C528.35 341.615 528.375 339.305 528.375 339.305L542.71 333.909L561.12 328.003L576.609 335.455L599.272 339.822L599.603 343.746Z" fill="black"/>
<path opacity="0.1" d="M586.133 216.607L580.248 321.893L548.239 315.148L541.888 272.946L548.159 216.281L552.885 216.897C552.764 218.961 552.532 221.017 552.191 223.056C551.424 226.659 556.162 252.226 556.162 252.226C556.162 252.226 565.164 280.897 569.214 276.764C573.264 272.631 579.033 250.809 579.033 250.809C582.942 242.716 579.1 220.013 578.812 219.557C578.611 218.886 578.488 218.194 578.444 217.494L586.133 216.607Z" fill="black"/>
<path opacity="0.1" d="M599.959 298.081L600.229 308.398L597.271 311.089L595.277 286.114H599.695L599.959 298.081Z" fill="black"/>
<path opacity="0.1" d="M530.455 279.049C530.41 279.879 530.293 280.704 530.105 281.513C530.105 281.285 530.105 281.156 530.056 281.137C529.872 281.088 530.093 280.146 530.455 279.049Z" fill="black"/>
<path opacity="0.1" d="M536.125 286.114L534.106 311.071C534.106 311.071 531.081 308.318 527.166 304.733L527.632 300.311C527.632 300.311 529.283 289.446 529.884 284.088C530.157 284.802 530.511 285.482 530.94 286.114H536.125Z" fill="black"/>
<path d="M553.486 207.541C553.486 207.541 551.571 204.714 548.945 210.171C548.945 210.171 542.096 214.156 539.74 214.605C537.383 215.055 529.001 218.011 529.001 218.011C527.735 218.93 526.212 219.424 524.65 219.422C522.023 219.422 519.845 225.205 520.164 228.353C520.483 231.5 519.973 233.816 517.543 233.945C515.113 234.075 516.451 239.144 516.451 239.144L532.646 257.775C532.646 257.775 533.671 274.929 533.161 275.446C532.652 275.964 530.792 280.989 531.24 281.162C531.688 281.334 528.786 300.305 528.786 300.305L524.883 337.118C524.883 337.118 524.883 343.278 532.824 345.402C540.765 347.527 560.298 346.123 561.556 340.531L565.587 335.258C565.587 335.258 572.497 348.753 583.059 347.404C593.62 346.055 600.346 342.2 600.346 342.2L599.192 298.081L598.425 266.281L614.914 239.088C614.914 239.088 610.496 230.607 610.882 226.77C611.269 222.933 612.03 220.026 602.622 218.677C602.622 218.677 594.688 217.488 590.011 214.242C587.232 212.305 584.196 210.771 580.991 209.684C580.991 209.684 578.352 204.757 576.517 206.444C576.517 206.444 578.358 213.411 578.204 214.451C578.051 215.492 578.493 220.198 578.781 220.685C579.07 221.171 582.911 243.843 579.002 251.936C579.002 251.936 573.264 273.759 569.184 277.891C565.103 282.024 556.131 253.353 556.131 253.353C556.131 253.353 551.393 227.78 552.16 224.183C552.927 220.586 553.486 207.541 553.486 207.541Z" fill="#3F3D56"/>
<path d="M567.183 291.768C568.739 291.768 570 290.502 570 288.941C570 287.38 568.739 286.114 567.183 286.114C565.627 286.114 564.366 287.38 564.366 288.941C564.366 290.502 565.627 291.768 567.183 291.768Z" fill="#3F3D56"/>
<path d="M567.183 305.097C568.739 305.097 570 303.831 570 302.27C570 300.708 568.739 299.442 567.183 299.442C565.627 299.442 564.366 300.708 564.366 302.27C564.366 303.831 565.627 305.097 567.183 305.097Z" fill="#3F3D56"/>
<path opacity="0.1" d="M567.183 291.768C568.739 291.768 570 290.502 570 288.941C570 287.38 568.739 286.114 567.183 286.114C565.627 286.114 564.366 287.38 564.366 288.941C564.366 290.502 565.627 291.768 567.183 291.768Z" fill="black"/>
<path opacity="0.1" d="M567.183 305.097C568.739 305.097 570 303.831 570 302.27C570 300.708 568.739 299.442 567.183 299.442C565.627 299.442 564.366 300.708 564.366 302.27C564.366 303.831 565.627 305.097 567.183 305.097Z" fill="black"/>
<path opacity="0.1" d="M592.497 470.749C592.497 470.749 604.058 471.648 605.206 472.547C606.353 473.446 592.497 470.749 592.497 470.749Z" fill="black" stroke="#44EE9D" stroke-miterlimit="10"/>
<path opacity="0.1" d="M523.662 461.627C523.662 461.627 526.116 464.707 525.073 466.123C524.03 467.54 523.662 461.627 523.662 461.627Z" fill="black" stroke="#44EE9D" stroke-miterlimit="10"/>
<path opacity="0.1" d="M526.607 472.732C526.607 472.732 531.087 469.775 532.879 471.74C534.671 473.705 526.607 472.732 526.607 472.732Z" fill="black" stroke="#44EE9D" stroke-miterlimit="10"/>
<path opacity="0.1" d="M582.39 185.842C582.393 187.382 582.199 188.916 581.813 190.406C581.434 190.233 581.117 189.948 580.905 189.589C580.692 189.23 580.593 188.815 580.622 188.398C580.702 187.665 581.187 186.994 581.082 186.267C580.929 185.146 579.579 184.69 578.867 183.803C577.99 182.731 578.18 181.173 578.253 179.787C578.327 178.402 577.977 176.708 576.682 176.234C576.296 176.092 575.872 176.08 575.498 175.919C574.479 175.488 574.166 174.219 573.485 173.345C572.123 171.583 569.417 171.62 567.349 172.458C566.448 172.891 565.527 173.278 564.587 173.616C564.117 173.782 563.617 173.849 563.119 173.812C562.622 173.775 562.137 173.635 561.697 173.4C561.292 173.142 560.966 172.784 560.549 172.526C559.162 171.688 557.346 172.526 556.143 173.604C554.94 174.681 553.977 176.129 552.461 176.788C551.78 177.096 550.939 177.281 550.62 177.946C550.462 178.308 550.395 178.703 550.424 179.098C550.424 181.494 550.706 183.926 550.209 186.273C549.89 187.782 548.834 189.494 547.306 189.31C547.116 189.281 546.929 189.234 546.748 189.168C546.288 186.701 546.346 184.165 546.917 181.722C547.489 179.279 548.562 176.982 550.068 174.979C551.574 172.975 553.48 171.309 555.664 170.087C557.848 168.865 560.262 168.113 562.751 167.88C565.241 167.647 567.752 167.937 570.123 168.733C572.495 169.529 574.675 170.812 576.524 172.502C578.373 174.191 579.851 176.249 580.863 178.544C581.875 180.838 582.399 183.32 582.402 185.83L582.39 185.842Z" fill="black"/>
<path d="M545.944 188.145C546.404 188.25 546.84 188.49 547.312 188.552C548.84 188.737 549.896 187.024 550.215 185.515C550.712 183.169 550.454 180.736 550.436 178.34C550.402 177.946 550.467 177.55 550.626 177.188C550.976 176.523 551.817 176.338 552.467 176.03C553.952 175.365 554.922 173.948 556.149 172.846C557.377 171.743 559.162 170.93 560.549 171.768C560.96 172.014 561.292 172.384 561.697 172.643C562.14 172.874 562.625 173.012 563.123 173.049C563.621 173.086 564.121 173.021 564.593 172.858C565.544 172.575 566.434 172.076 567.349 171.7C569.398 170.863 572.111 170.832 573.485 172.581C574.166 173.462 574.479 174.725 575.498 175.156C575.872 175.316 576.296 175.334 576.683 175.476C577.977 175.963 578.309 177.644 578.254 179.03C578.198 180.416 578.014 181.974 578.867 183.046C579.579 183.92 580.929 184.376 581.082 185.509C581.181 186.236 580.702 186.914 580.622 187.64C580.604 187.911 580.639 188.182 580.726 188.438C580.813 188.694 580.95 188.931 581.129 189.134C581.307 189.336 581.524 189.502 581.767 189.62C582.01 189.737 582.274 189.806 582.543 189.821C584.139 189.821 585.127 188.028 586.618 187.456C587.231 187.215 587.974 187.178 588.459 186.692C588.639 186.458 588.766 186.188 588.832 185.899C588.898 185.611 588.9 185.312 588.839 185.023C588.539 182.664 586.655 180.613 586.857 178.248C587.047 175.981 589.14 174.004 588.698 171.774C588.473 170.952 588.052 170.197 587.471 169.575C586.813 168.681 585.955 167.953 584.967 167.451C584.114 167.081 583.126 166.995 582.347 166.545C580.027 165.27 580.033 161.944 578.665 159.678C578.077 158.741 577.244 157.984 576.257 157.491C575.27 156.998 574.167 156.787 573.068 156.881C571.344 157.054 569.779 157.971 568.073 158.279C565.735 158.698 563.366 157.928 561.151 157.048C558.935 156.167 556.695 155.2 554.32 155.2C551.946 155.2 549.374 156.432 548.65 158.686C548.27 159.918 548.46 161.236 548.165 162.474C547.65 164.673 545.711 166.237 543.759 167.327C542.415 168.079 540.801 168.941 540.642 170.475C540.537 171.448 541.071 172.322 541.409 173.265C541.983 174.859 541.97 176.607 541.372 178.192C540.924 179.356 540.175 180.379 539.721 181.537C539.399 182.323 539.247 183.168 539.274 184.018C539.302 184.867 539.508 185.701 539.881 186.464C540.167 187.02 540.563 187.512 541.045 187.91C541.528 188.307 542.086 188.601 542.685 188.774C543.894 189.063 544.655 187.862 545.944 188.145Z" fill="#3F3D56"/>
<g opacity="0.1">
<path opacity="0.1" d="M550.215 184.173C549.896 185.682 548.834 187.394 547.306 187.209C546.834 187.148 546.404 186.907 545.938 186.803C544.655 186.519 543.894 187.727 542.685 187.419C542.085 187.246 541.526 186.952 541.043 186.555C540.559 186.158 540.162 185.666 539.875 185.109C539.554 184.482 539.36 183.797 539.304 183.095C539.182 184.185 539.38 185.288 539.875 186.267C540.162 186.824 540.559 187.315 541.043 187.713C541.526 188.11 542.085 188.404 542.685 188.577C543.913 188.86 544.655 187.653 545.938 187.961C546.387 188.118 546.844 188.251 547.306 188.361C548.834 188.552 549.896 186.84 550.215 185.331C550.467 183.997 550.566 182.64 550.51 181.284C550.504 182.254 550.405 183.222 550.215 184.173V184.173Z" fill="black"/>
<path opacity="0.1" d="M541.808 174.897C541.886 173.888 541.748 172.873 541.403 171.922C541.125 171.29 540.889 170.639 540.697 169.976C540.671 170.079 540.65 170.184 540.636 170.29C540.531 171.257 541.071 172.138 541.403 173.08C541.617 173.665 541.753 174.276 541.808 174.897V174.897Z" fill="black"/>
<path opacity="0.1" d="M588.692 171.651C588.404 173.4 586.992 175.045 586.851 176.886C586.817 177.202 586.817 177.52 586.851 177.835C587.158 175.685 589.054 173.782 588.692 171.651Z" fill="black"/>
<path opacity="0.1" d="M588.796 184.647C588.744 184.905 588.623 185.143 588.447 185.337C587.993 185.823 587.219 185.86 586.606 186.101C585.114 186.673 584.151 188.484 582.531 188.466C582.116 188.442 581.718 188.293 581.389 188.038C581.061 187.783 580.817 187.434 580.69 187.037C580.652 187.17 580.624 187.306 580.604 187.443C580.586 187.713 580.622 187.983 580.71 188.239C580.797 188.495 580.934 188.73 581.113 188.932C581.291 189.135 581.508 189.299 581.75 189.417C581.993 189.534 582.256 189.603 582.525 189.617C584.126 189.617 585.108 187.825 586.599 187.258C587.213 187.018 587.962 186.981 588.441 186.495C588.621 186.261 588.748 185.99 588.814 185.702C588.88 185.414 588.882 185.115 588.821 184.826C588.815 184.752 588.803 184.702 588.796 184.647Z" fill="black"/>
<path opacity="0.1" d="M581.101 184.136C580.947 183.015 579.597 182.559 578.885 181.672C578.449 181.089 578.212 180.381 578.21 179.652C578.161 180.797 578.18 181.968 578.885 182.83C579.591 183.692 580.665 184.062 581.009 184.949C581.096 184.687 581.127 184.41 581.101 184.136V184.136Z" fill="black"/>
<path opacity="0.1" d="M578.247 177.687C578.296 176.301 577.965 174.607 576.67 174.133C576.29 173.992 575.866 173.973 575.492 173.819C574.473 173.388 574.154 172.119 573.479 171.245C572.111 169.489 569.404 169.52 567.342 170.358C566.422 170.733 565.544 171.232 564.587 171.516C564.117 171.682 563.617 171.749 563.119 171.712C562.622 171.675 562.138 171.535 561.697 171.3C561.292 171.041 560.96 170.684 560.549 170.425C559.156 169.588 557.34 170.425 556.143 171.503C554.946 172.581 553.977 174.022 552.461 174.688C551.774 174.996 550.939 175.18 550.583 175.845C550.427 176.208 550.362 176.604 550.393 176.997C550.393 177.237 550.393 177.478 550.393 177.718C550.401 177.47 550.462 177.226 550.571 177.003C550.927 176.338 551.761 176.153 552.449 175.845C553.934 175.18 554.903 173.764 556.131 172.661C557.358 171.559 559.144 170.746 560.537 171.583C560.948 171.83 561.279 172.199 561.684 172.452C562.125 172.688 562.609 172.829 563.107 172.866C563.605 172.903 564.105 172.835 564.575 172.667C565.513 172.332 566.433 171.948 567.33 171.516C569.386 170.678 572.092 170.641 573.467 172.396C574.142 173.271 574.461 174.54 575.48 174.971C575.854 175.131 576.277 175.15 576.658 175.291C577.707 175.685 578.125 176.868 578.217 178.038L578.247 177.687Z" fill="black"/>
</g>
<g opacity="0.1">
<path opacity="0.1" d="M548.024 184.136C548.059 183.114 548.424 182.13 549.064 181.334C549.704 180.538 550.583 179.971 551.571 179.72C554.308 179.048 557.179 179.179 559.844 180.095C565.667 182.029 559.107 188.989 559.107 188.989C559.107 188.989 554.744 193.301 550.675 190.289C549.474 189.377 548.632 188.068 548.3 186.593C548.101 185.79 548.008 184.964 548.024 184.136V184.136Z" fill="black"/>
<path opacity="0.1" d="M580.039 184.136C580.004 183.113 579.638 182.129 578.997 181.332C578.357 180.536 577.475 179.97 576.486 179.72C573.752 179.05 570.883 179.18 568.22 180.095C562.396 182.029 568.957 188.989 568.957 188.989C568.957 188.989 573.314 193.301 577.388 190.289C578.59 189.377 579.431 188.068 579.763 186.593C579.962 185.79 580.055 184.964 580.039 184.136Z" fill="black"/>
<path opacity="0.1" d="M558.745 179.529V179.818H569.38V179.473L558.745 179.529Z" fill="black"/>
<path opacity="0.1" d="M562.139 182.614H562.476V181.635C562.476 181.635 563.556 180.791 565.348 181.635V182.51H565.962V181.937H565.661C565.661 181.937 565.784 180.748 563.783 180.939C563.783 180.939 562.175 180.785 562.212 181.808H561.844L562.139 182.614Z" fill="black"/>
</g>
<path d="M548.024 183.736C548.059 182.713 548.424 181.73 549.064 180.934C549.704 180.137 550.583 179.571 551.571 179.319C554.308 178.652 557.178 178.783 559.844 179.695C565.667 181.635 559.107 188.589 559.107 188.589C559.107 188.589 554.744 192.9 550.675 189.889C549.471 188.979 548.629 187.669 548.3 186.193C548.101 185.39 548.008 184.563 548.024 183.736V183.736Z" fill="#44EE9D"/>
<path d="M580.039 183.735C580.004 182.712 579.638 181.729 578.997 180.932C578.356 180.136 577.475 179.57 576.486 179.319C573.751 178.652 570.884 178.783 568.22 179.695C562.396 181.635 568.956 188.589 568.956 188.589C568.956 188.589 573.313 192.9 577.388 189.889C578.592 188.979 579.434 187.669 579.763 186.193C579.963 185.39 580.056 184.563 580.039 183.735Z" fill="#44EE9D"/>
<path d="M558.745 179.141V179.436H569.38V179.085L558.745 179.141Z" fill="#44EE9D"/>
<path d="M562.139 182.227H562.476V181.247C562.476 181.247 563.556 180.41 565.348 181.247V182.128H565.962V181.549H565.661C565.661 181.549 565.784 180.366 563.783 180.551C563.783 180.551 562.175 180.403 562.212 181.42H561.844L562.139 182.227Z" fill="#44EE9D"/>
<path d="M75.567 281.593H72.0814V360.369H75.567V281.593Z" fill="#535461"/>
<path d="M97.4751 360.129L97.2541 363.677L96.9473 368.684L96.8185 370.772L96.5116 375.786L96.3766 377.874L96.0698 382.881L92.5534 439.836C92.4035 442.287 91.3276 444.588 89.5454 446.27C87.7631 447.953 85.4085 448.889 82.9618 448.89H64.6868C62.2407 448.889 59.8869 447.952 58.1056 446.27C56.3243 444.587 55.2498 442.286 55.1013 439.836L51.5666 382.881L51.2597 377.874L51.1309 375.786L50.8302 370.76L50.7013 368.672L50.3944 363.665L50.1735 360.117C50.1316 359.436 50.2291 358.754 50.46 358.112C50.6909 357.47 51.0503 356.883 51.516 356.386C51.9818 355.889 52.544 355.493 53.168 355.223C53.792 354.953 54.4645 354.813 55.1442 354.814H92.5105C93.191 354.813 93.8645 354.953 94.489 355.224C95.1136 355.495 95.676 355.892 96.1415 356.391C96.6069 356.889 96.9654 357.478 97.1948 358.121C97.4242 358.764 97.5196 359.448 97.4751 360.129V360.129Z" fill="#3F3D56"/>
<path d="M97.2542 363.677L96.9474 368.684H50.6952L50.3884 363.677H97.2542Z" fill="#9D9CB5"/>
<path d="M96.8185 370.772L96.5116 375.786H51.137L50.824 370.772H96.8185Z" fill="#9D9CB5"/>
<path d="M96.3766 377.874L96.0697 382.881H51.5788L51.2658 377.874H96.3766Z" fill="#9D9CB5"/>
<path d="M45.0678 311.12C65.368 325.859 73.8243 348.919 73.8243 348.919C73.8243 348.919 49.3574 348.076 29.0265 333.337C8.69568 318.598 0.27002 295.538 0.27002 295.538C0.27002 295.538 24.7615 296.381 45.0678 311.12Z" fill="#44EE9D"/>
<path d="M0.300659 295.538C0.300659 295.538 25.6943 309.704 33.8376 321.406C41.981 333.109 73.8243 348.926 73.8243 348.926" stroke="#535461" stroke-width="2" stroke-miterlimit="10"/>
<path d="M58.1697 281.451C69.2157 289.458 73.8243 302.023 73.8243 302.023C73.8243 302.023 60.5077 301.567 49.4556 293.542C38.4034 285.516 33.807 272.97 33.807 272.97C33.807 272.97 47.1236 273.395 58.1697 281.451Z" fill="#44EE9D"/>
<path d="M33.807 272.939C33.807 272.939 47.6268 280.638 52.0575 287.013C56.4882 293.388 73.8243 301.992 73.8243 301.992" stroke="#535461" stroke-width="2" stroke-miterlimit="10"/>
<path d="M89.884 301.358C77.1872 315.358 74.5054 333.651 74.5054 333.651C74.5054 333.651 92.4 329.247 105.091 315.247C117.781 301.247 120.469 282.948 120.469 282.948C120.469 282.948 102.575 287.352 89.884 301.358Z" fill="#44EE9D"/>
<path d="M120.469 282.948C120.469 282.948 103.937 297.299 99.7333 307.191C95.5297 317.082 74.5054 333.675 74.5054 333.675" stroke="#535461" stroke-width="2" stroke-miterlimit="10"/>
</g>
<defs>
<linearGradient id="paint0_linear" x1="362.862" y1="397.934" x2="362.862" y2="66.3655" gradientUnits="userSpaceOnUse">
<stop stop-color="#808080" stop-opacity="0.25"/>
<stop offset="0.54" stop-color="#808080" stop-opacity="0.12"/>
<stop offset="1" stop-color="#808080" stop-opacity="0.1"/>
</linearGradient>
<linearGradient id="paint1_linear" x1="112936" y1="297756" x2="112936" y2="100887" gradientUnits="userSpaceOnUse">
<stop stop-color="#808080" stop-opacity="0.25"/>
<stop offset="0.54" stop-color="#808080" stop-opacity="0.12"/>
<stop offset="1" stop-color="#808080" stop-opacity="0.1"/>
</linearGradient>
<clipPath id="clip0">
<rect width="703" height="505" fill="white"/>
</clipPath>
</defs>
</svg>
